<?xml version="1.0" encoding="utf-8"?>
<!-- Generator: Adobe Illustrator 22.1.0, SVG Export Plug-In . SVG Version: 6.00 Build 0)  -->
<svg version="1.1" id="Layer_1" xmlns="http://www.w3.org/2000/svg" xmlns:xlink="http://www.w3.org/1999/xlink" x="0px" y="0px"
	 viewBox="0 0 1449 786" style="enable-background:new 0 0 1449 786;" xml:space="preserve">
<style type="text/css">
	.st0{fill:#B0B0B0;}
	.st1{fill:#FFFFFF;}
	.st2{clip-path:url(#SVGID_2_);}
	.st3{clip-path:url(#SVGID_4_);}
	.st4{clip-path:url(#SVGID_6_);}
	.st5{clip-path:url(#SVGID_10_);}
	.st6{clip-path:url(#SVGID_12_);}
	.st7{clip-path:url(#SVGID_14_);}
	.st8{fill:#171C21;}
</style>
<g>
	<path class="st0" d="M8.6,746.7c0,0-8.9,16.5,54.2,30.3h1320.8c0,0,44.2-2.8,55.8-23.7l0.1-11.4L8.6,746.7z"/>
	<path class="st1" d="M8.9,713.3H1440V750c0,0,0,3.7-14.7,3.7H22.4c0,0-14.4,0.3-14.4-4.9L8.9,713.3z"/>
	<path class="st0" d="M1373.6,734.8c0,1.4-0.9,2.6-2.1,2.6h-48.7c-1.2,0-2.1-1.1-2.1-2.6c0-1.5,1-2.6,2.1-2.6h48.7
		C1372.6,732.2,1373.6,733.3,1373.6,734.8"/>
	<path class="st0" d="M627.3,713.6c0,0-5.5,18.4,12.9,20.2h166c0,0,17.7,2.3,15.3-19.6L627.3,713.6z"/>
</g>
<g>
	<defs>
		<path id="SVGID_1_" d="M820.6,714.2c0,0.1,0,0.3,0,0.4L820.6,714.2L820.6,714.2z"/>
	</defs>
	<clipPath id="SVGID_2_">
		<use xlink:href="#SVGID_1_"  style="overflow:visible;"/>
	</clipPath>
	<g class="st2">
		<defs>
			<rect id="SVGID_3_" x="839.5" y="701.9" width="0" height="0.5"/>
		</defs>
		<clipPath id="SVGID_4_">
			<use xlink:href="#SVGID_3_"  style="overflow:visible;"/>
		</clipPath>
		<g class="st3">
			<g>
				<defs>
					<rect id="SVGID_5_" x="839.5" y="701.9" width="0" height="0.5"/>
				</defs>
				<clipPath id="SVGID_6_">
					<use xlink:href="#SVGID_5_"  style="overflow:visible;"/>
				</clipPath>
				<g class="st4">
					<defs>
						<rect id="SVGID_7_" x="839.5" y="701.9" width="0" height="0.5"/>
					</defs>
					<clipPath id="SVGID_8_">
						<use xlink:href="#SVGID_7_"  style="overflow:visible;"/>
					</clipPath>
					<g style="clip-path:url(#SVGID_8_);">
						
							<image style="overflow:visible;" width="2" height="3" xlink:href="9E01C4B825D442CB.jpg"  transform="matrix(0.24 0 0 0.24 839.28 701.76)">
						</image>
					</g>
				</g>
			</g>
		</g>
	</g>
</g>
<g>
	<defs>
		<path id="SVGID_9_" d="M820.6,714.2c0,0.1,0,0.3,0,0.4L820.6,714.2L820.6,714.2z"/>
	</defs>
	<clipPath id="SVGID_10_">
		<use xlink:href="#SVGID_9_"  style="overflow:visible;"/>
	</clipPath>
	<g class="st5">
		<defs>
			<rect id="SVGID_11_" x="839.5" y="701.9" width="0" height="0.5"/>
		</defs>
		<clipPath id="SVGID_12_">
			<use xlink:href="#SVGID_11_"  style="overflow:visible;"/>
		</clipPath>
		<g class="st6">
			<g>
				<defs>
					<rect id="SVGID_13_" x="839.5" y="701.9" width="0" height="0.5"/>
				</defs>
				<clipPath id="SVGID_14_">
					<use xlink:href="#SVGID_13_"  style="overflow:visible;"/>
				</clipPath>
				<g class="st7">
					<defs>
						<rect id="SVGID_15_" x="839.5" y="701.9" width="0" height="0.5"/>
					</defs>
					<clipPath id="SVGID_16_">
						<use xlink:href="#SVGID_15_"  style="overflow:visible;"/>
					</clipPath>
					<g style="clip-path:url(#SVGID_16_);">
						
							<image style="overflow:visible;" width="2" height="3" xlink:href="9E01C4B825D442C9.jpg"  transform="matrix(0.24 0 0 0.24 839.28 701.76)">
						</image>
					</g>
				</g>
			</g>
		</g>
	</g>
</g>
<g>
	<path class="st8" d="M1299.3,713.1V60.8c0-29.6-24.2-53.8-53.8-53.8H202.6c-29.6,0-53.8,24.2-53.8,53.8v652.3H1299.3z"/>
</g>
<rect x="185.8" y="47.4" class="st1" width="1076.5" height="625.7"/>
</svg>
